<svg xmlns="http://www.w3.org/2000/svg" width="1584" height="396" viewBox="0 0 1584 396" role="img" aria-labelledby="title desc">
  <title id="title">Mohammad Fardeen Shaik — ML infrastructure and model serving</title>
  <desc id="desc">A dark navy professional banner with restrained mint routing lines on the left. All essential text is on the right: Mohammad Fardeen Shaik, ML infrastructure, Model serving, Python, FastAPI, ONNX, Docker, and github.com/smfardeen7.</desc>
  <rect width="1584" height="396" fill="#10212D"/>
  <g fill="none" stroke="#68E0C2" stroke-width="1.5" opacity="0.16">
    <path d="M-30 93H185Q219 93 219 127V181Q219 215 253 215H446"/>
    <path d="M-25 151H118Q152 151 152 185V215Q152 249 186 249H346Q380 249 380 215V107Q380 73 414 73H481"/>
    <path d="M-10 322H272Q306 322 306 288V146Q306 112 340 112H467"/>
    <path d="M-5 36H321Q355 36 355 70V158Q355 192 389 192H463"/>
  </g>
  <g fill="#10212D" stroke="#68E0C2" stroke-width="2">
    <circle cx="219" cy="164" r="6" opacity="0.5"/>
    <circle cx="306" cy="266" r="6" opacity="0.45"/>
    <circle cx="380" cy="146" r="6" opacity="0.65"/>
    <circle cx="446" cy="215" r="6" opacity="0.65"/>
  </g>
  <path d="M518 53V343" stroke="#68E0C2" stroke-width="1" opacity="0.22"/>
  <rect x="561" y="51" width="33" height="3" rx="1.5" fill="#68E0C2"/>
  <g font-family="Arial, Helvetica, sans-serif">
    <text x="561" y="89" font-size="23" font-weight="600" letter-spacing="2.3" fill="#F1F5F3">MOHAMMAD FARDEEN SHAIK</text>
    <text x="556" y="165" font-size="54" font-weight="700" letter-spacing="-1.4" fill="#F1F5F3">ML infrastructure.</text>
    <text x="556" y="225" font-size="54" font-weight="700" letter-spacing="-1.4" fill="#68E0C2">Model serving.</text>
    <text x="561" y="272" font-size="19" letter-spacing="1.7" fill="#F1F5F3" opacity="0.8">PYTHON  /  FASTAPI  /  ONNX  /  DOCKER</text>
    <path d="M561 298H1435" stroke="#68E0C2" stroke-width="1" opacity="0.18"/>
    <text x="561" y="337" font-size="22" fill="#F1F5F3">github.com/smfardeen7</text>
    <text x="1435" y="337" text-anchor="end" font-size="14" letter-spacing="1.6" fill="#68E0C2">AI SOFTWARE ENGINEERING</text>
  </g>
</svg>
